HIERARCHY
ROOT Hips
{
	OFFSET 0.000000 0.000000 0.000000
	CHANNELS 6 Xposition Yposition Zposition Zrotation Yrotation Xrotation 
	JOINT LeftUpLeg_virtual
	{
		OFFSET 0.000000 0.000000 0.000000
		CHANNELS 3 Zrotation Yrotation Xrotation
		JOINT LeftUpLeg
		{
			OFFSET 8.479694 -4.795517 -0.379053
			CHANNELS 3 Zrotation Yrotation Xrotation
			JOINT LeftLeg
			{
				OFFSET 0.485052 -32.551468 0.112863
				CHANNELS 3 Zrotation Yrotation Xrotation
				JOINT LeftFoot
				{
					OFFSET 0.438033 -32.635670 -3.012641
					CHANNELS 3 Zrotation Yrotation Xrotation
					JOINT LeftToeBase
					{
						OFFSET 0.970169 -13.225353 11.864223
						CHANNELS 3 Zrotation Yrotation Xrotation
						End Site
						{
							OFFSET 0.000000 0.000000 0.000000
						}
					}
				}
			}
		}
	}
	JOINT RightUpLeg_virtual
	{
		OFFSET 0.000000 0.000000 0.000000
		CHANNELS 3 Zrotation Yrotation Xrotation
		JOINT RightUpLeg
		{
			OFFSET -8.479694 -4.795517 -0.379053
			CHANNELS 3 Zrotation Yrotation Xrotation
			JOINT RightLeg
			{
				OFFSET -0.484100 -32.551483 0.112903
				CHANNELS 3 Zrotation Yrotation Xrotation
				JOINT RightFoot
				{
					OFFSET -0.438985 -32.635651 -3.012681
					CHANNELS 3 Zrotation Yrotation Xrotation
					JOINT RightToeBase
					{
						OFFSET -0.970169 -13.225354 11.864223
						CHANNELS 3 Zrotation Yrotation Xrotation
						End Site
						{
							OFFSET 0.000000 0.000000 0.000000
						}
					}
				}
			}
		}
	}
	JOINT Spine_virtual
	{
		OFFSET 0.000000 0.000000 0.000000
		CHANNELS 3 Zrotation Yrotation Xrotation
		JOINT Spine
		{
			OFFSET 0.000000 7.722015 1.166203
			CHANNELS 3 Zrotation Yrotation Xrotation
			JOINT Spine1
			{
				OFFSET 0.000000 12.024086 0.248766
				CHANNELS 3 Zrotation Yrotation Xrotation
				JOINT Spine2
				{
					OFFSET -0.000000 11.503036 -0.491240
					CHANNELS 3 Zrotation Yrotation Xrotation
					JOINT Neck_virtual
					{
						OFFSET 0.000000 0.000000 0.000000
						CHANNELS 3 Zrotation Yrotation Xrotation
						JOINT Neck
						{
							OFFSET 0.000000 18.430687 -3.123054
							CHANNELS 3 Zrotation Yrotation Xrotation
							JOINT Head
							{
								OFFSET -0.000000 9.051071 1.034021
								CHANNELS 3 Zrotation Yrotation Xrotation
								End Site
								{
									OFFSET 0.000000 0.000000 0.000000
								}
							}
						}
					}
					JOINT LeftShoulder_virtual
					{
						OFFSET 0.000000 0.000000 0.000000
						CHANNELS 3 Zrotation Yrotation Xrotation
						JOINT LeftShoulder
						{
							OFFSET 6.197824 13.665230 -4.064723
							CHANNELS 3 Zrotation Yrotation Xrotation
							JOINT LeftArm
							{
								OFFSET 7.778132 -0.187073 -1.709282
								CHANNELS 3 Zrotation Yrotation Xrotation
								JOINT LeftForeArm
								{
									OFFSET 21.954697 0.000000 -2.041093
									CHANNELS 3 Zrotation Yrotation Xrotation
									JOINT LeftHand
									{
										OFFSET 22.992908 0.000000 -0.870901
										CHANNELS 3 Zrotation Yrotation Xrotation
										End Site
										{
											OFFSET 0.000000 0.000000 0.000000
										}
									}
								}
							}
						}
					}
					JOINT RightShoulder_virtual
					{
						OFFSET 0.000000 0.000000 0.000000
						CHANNELS 3 Zrotation Yrotation Xrotation
						JOINT RightShoulder
						{
							OFFSET -6.197824 13.665230 -4.064723
							CHANNELS 3 Zrotation Yrotation Xrotation
							JOINT RightArm
							{
								OFFSET -7.778132 -0.187073 -1.709282
								CHANNELS 3 Zrotation Yrotation Xrotation
								JOINT RightForeArm
								{
									OFFSET -21.954697 0.000000 -2.041093
									CHANNELS 3 Zrotation Yrotation Xrotation
									JOINT RightHand
									{
										OFFSET -22.992908 0.000000 -0.870901
										CHANNELS 3 Zrotation Yrotation Xrotation
										End Site
										{
											OFFSET 0.000000 0.000000 0.000000
										}
									}
								}
							}
						}
					}
				}
			}
		}
	}
}
MOTION
Frames: 13
Frame Time: 0.033333
-12.821155 34.599640 10.781603 179.355891 11.685006 179.638169 5.913793 -9.920180 -14.072258 -17.958917 13.087203 -95.271802 11.780872 -3.033221 117.684774 -12.112526 -29.930879 -16.677486 0.000000 0.000000 0.000000 1.874115 -2.826623 -10.189335 26.725960 -13.027321 -98.171504 -7.653141 -6.469045 106.430118 -4.916442 26.287574 12.963761 0.000000 0.000000 0.000000 -4.341864 -0.345670 3.085209 -3.004289 1.676804 6.299054 0.620994 -1.335404 6.976199 0.081930 -0.099081 -0.070387 1.112863 -1.445431 8.831917 0.139002 12.110795 14.433593 0.000000 0.000000 0.000000 4.649388 -0.747376 2.507833 -1.830298 5.871600 7.091498 -47.938461 -8.604167 -19.427399 171.909933 -86.026055 -147.042730 0.000000 0.000000 0.000000 -1.916541 1.014392 1.298406 15.694808 10.478251 7.577863 38.311702 5.714550 -25.457667 -141.328649 85.269475 -152.432965 0.000000 0.000000 0.000000 
-12.569587 34.578495 10.768130 179.360904 11.552946 179.646188 6.446472 -9.943309 -14.122511 -18.034210 13.298335 -95.247186 11.879203 -3.062606 117.779140 -12.867411 -30.115294 -16.218021 0.000000 0.000000 0.000000 2.378827 -2.854250 -10.224053 26.574465 -12.881270 -98.163404 -7.597568 -6.347748 106.532954 -5.028111 26.192485 12.709053 0.000000 0.000000 0.000000 -3.822634 -0.314058 3.107635 -2.553301 1.696136 6.252554 0.494373 -1.437340 6.907718 0.076910 -0.144838 -0.068307 1.016375 -1.497977 8.787606 -0.164434 11.950595 14.648980 0.000000 0.000000 0.000000 4.566156 -0.777594 2.438492 -2.001560 6.213171 7.143233 -48.910459 -8.479172 -18.905499 171.891245 -85.757622 -146.942176 0.000000 0.000000 0.000000 -2.087941 0.994999 1.195404 15.586241 10.500949 7.789934 38.729693 6.111751 -24.961459 -145.752084 84.541486 -156.959687 0.000000 0.000000 0.000000 
-12.356913 34.559376 10.760348 179.365617 11.458517 179.644302 6.937932 -9.929704 -14.109399 -18.225742 13.628346 -95.230923 12.066304 -3.069836 117.833085 -13.823306 -30.274574 -15.758297 0.000000 0.000000 0.000000 2.848347 -2.814659 -10.194470 26.415786 -12.730104 -98.213503 -7.529360 -6.232071 106.612648 -5.137999 26.111605 12.464230 0.000000 0.000000 0.000000 -3.366555 -0.578894 3.198970 -2.065445 1.851281 6.190985 0.400056 -1.398705 6.839476 0.050878 -0.099392 -0.064968 0.911141 -1.579610 8.735204 -0.499474 11.804095 14.827845 0.000000 0.000000 0.000000 4.495122 -0.828046 2.384219 -2.255630 6.497559 7.173749 -49.890051 -8.320015 -18.211026 171.802753 -85.576451 -146.746969 0.000000 0.000000 0.000000 -2.234568 0.958940 1.057221 15.633781 10.464098 7.981294 39.166173 6.477597 -24.359443 -148.093418 84.025124 -159.319763 0.000000 0.000000 0.000000 
-12.164735 34.543243 10.767533 179.363923 11.390565 179.630232 7.392399 -9.834490 -14.035663 -18.541597 14.069535 -95.226060 12.212704 -3.049411 117.847346 -14.603546 -30.402668 -15.408546 0.000000 0.000000 0.000000 3.282395 -2.675243 -10.095561 26.254969 -12.554803 -98.333079 -7.448986 -6.129357 106.652393 -5.269189 26.012444 12.197027 0.000000 0.000000 0.000000 -2.897634 -0.603849 3.336902 -1.547334 1.890407 6.112205 0.326227 -1.422374 6.743358 0.023445 -0.084105 -0.060010 0.818655 -1.693018 8.641106 -0.817952 11.706102 15.002019 0.000000 0.000000 0.000000 4.372085 -0.883761 2.319897 -2.476676 6.739640 7.272176 -50.915457 -8.179994 -17.576568 171.711803 -85.479093 -146.523185 0.000000 0.000000 0.000000 -2.278269 0.940535 0.931744 15.768943 10.499322 8.275182 39.591376 6.880677 -23.758552 -149.106499 83.560753 -160.319047 0.000000 0.000000 0.000000 
-12.006868 34.523140 10.787233 179.369415 11.394426 179.640928 7.852932 -9.798305 -13.958671 -18.868246 14.446622 -95.211744 12.461689 -3.191506 117.830790 -15.625164 -30.365286 -15.005970 0.000000 0.000000 0.000000 3.666535 -2.504436 -9.977439 26.095983 -12.382958 -98.504326 -7.350545 -6.028147 106.676886 -5.381217 25.916364 11.970878 0.000000 0.000000 0.000000 -2.463776 -0.456469 3.485305 -1.043193 1.995136 6.045011 0.272865 -1.608210 6.631921 0.085665 -0.231164 -0.045605 0.745864 -1.489086 8.527624 -1.132802 11.642612 15.064237 0.000000 0.000000 0.000000 4.379384 -0.961845 2.130333 -2.813221 7.107025 7.397529 -51.873217 -7.948068 -16.741574 172.417976 -85.444519 -147.103683 0.000000 0.000000 0.000000 -2.355397 0.945498 0.874896 15.891118 10.616124 8.532847 40.050853 7.215038 -22.920776 -149.031709 83.404949 -160.210092 0.000000 0.000000 0.000000 
-11.893666 34.492714 10.809225 179.406434 11.420846 179.612829 8.237156 -9.737429 -13.866465 -19.236446 14.804059 -95.225739 12.635792 -3.231164 117.810614 -16.335934 -30.312202 -14.716751 0.000000 0.000000 0.000000 4.036176 -2.369736 -9.837895 25.946417 -12.246982 -98.668141 -7.246534 -5.945424 106.668526 -5.429139 25.863483 11.934405 0.000000 0.000000 0.000000 -2.064476 -0.576041 3.635405 -0.583178 1.949281 6.005428 0.213333 -1.484370 6.520071 0.051281 -0.094597 -0.032282 0.735904 -1.519389 8.462730 -1.349948 11.489587 15.217586 0.000000 0.000000 0.000000 4.343955 -0.878593 2.126738 -2.972029 7.141672 7.400955 -52.786454 -8.003711 -16.040361 176.108313 -85.505472 -150.650668 0.000000 0.000000 0.000000 -2.359936 0.817425 0.759726 16.091693 10.673175 8.867425 40.528806 7.596711 -22.165443 -148.830751 83.282593 -159.965038 0.000000 0.000000 0.000000 
-11.834295 34.451157 10.822519 179.356806 11.496513 179.600903 8.578415 -9.729199 -13.816922 -19.544885 15.020392 -95.252691 12.686341 -3.226100 117.788743 -16.689385 -30.306249 -14.592523 0.000000 0.000000 0.000000 4.358014 -2.324126 -9.770615 25.795172 -12.134418 -98.849182 -7.125063 -5.855672 106.683382 -5.379076 25.854614 12.032453 0.000000 0.000000 0.000000 -1.730289 -0.459327 3.728692 -0.179595 2.050856 6.019106 0.190603 -1.703482 6.429222 0.074777 -0.279534 -0.074113 0.676791 -1.624760 8.336741 -1.688370 11.549951 15.168009 0.000000 0.000000 0.000000 4.320279 -0.846448 1.991131 -3.254735 7.252764 7.444131 -53.600446 -8.017589 -14.974244 172.846379 -85.623730 -147.270736 0.000000 0.000000 0.000000 -2.436000 0.932355 0.677748 16.363940 10.733441 9.138392 41.061533 7.956921 -21.310661 -148.324525 83.291124 -159.434592 0.000000 0.000000 0.000000 
-11.843110 34.402351 10.832395 179.321030 11.597633 179.582653 8.888738 -9.780973 -13.796205 -19.798449 15.098210 -95.294410 12.701982 -3.220997 117.755344 -16.700021 -30.327724 -14.633668 0.000000 0.000000 0.000000 4.664233 -2.356280 -9.725775 25.665368 -12.070784 -99.034444 -7.014015 -5.779137 106.734369 -5.286244 25.854626 12.184581 0.000000 0.000000 0.000000 -1.489302 -0.800960 3.826100 0.132506 1.961326 6.019973 0.176476 -1.503960 6.282261 0.028411 -0.083517 -0.056040 0.692263 -1.576461 8.314721 -1.782348 11.396585 15.251522 0.000000 0.000000 0.000000 4.296761 -1.029938 1.913436 -3.462825 7.260023 7.582955 -54.257561 -8.191705 -14.278107 173.573125 -85.578623 -147.898130 0.000000 0.000000 0.000000 -2.458759 0.938415 0.541466 16.572721 10.723060 9.326326 41.657915 8.260463 -20.172069 -146.430049 83.262157 -157.520596 0.000000 0.000000 0.000000 
-11.882708 34.356750 10.824432 179.349252 11.704516 179.588705 9.170599 -9.837656 -13.776328 -20.005873 15.064214 -95.383366 12.681285 -3.223677 117.744470 -16.452638 -30.340790 -14.742712 0.000000 0.000000 0.000000 4.962711 -2.399559 -9.699496 25.559114 -12.049085 -99.215362 -6.923534 -5.713864 106.846364 -5.190096 25.818745 12.253006 0.000000 0.000000 0.000000 -1.185694 -0.809323 3.895501 0.407341 1.945227 6.082749 0.143796 -1.544667 6.239231 0.033245 -0.111555 -0.053351 0.685479 -1.497509 8.097481 -1.966217 11.342306 15.172300 0.000000 0.000000 0.000000 4.299852 -0.903033 1.814335 -3.655516 7.172366 7.602652 -54.849452 -8.461622 -13.543059 174.097192 -85.652061 -148.354400 0.000000 0.000000 0.000000 -2.437943 0.868246 0.444789 16.797175 10.809674 9.636870 42.315211 8.681619 -19.239320 -146.003654 83.241489 -157.090786 0.000000 0.000000 0.000000 
-11.938854 34.319447 10.808001 179.373349 11.790640 179.576492 9.401892 -9.874640 -13.699710 -20.159003 14.977978 -95.491229 12.755374 -3.226069 117.731998 -16.544023 -30.284734 -14.699494 0.000000 0.000000 0.000000 5.242569 -2.418851 -9.648229 25.472265 -12.067798 -99.393609 -6.855333 -5.660081 106.958215 -5.101083 25.708422 12.288783 0.000000 0.000000 0.000000 -0.932301 -0.934344 4.024844 0.641242 2.007774 6.103148 0.139217 -1.553559 6.140445 0.033909 -0.124016 -0.071877 0.697961 -1.461690 8.038202 -2.050054 11.323534 15.193397 0.000000 0.000000 0.000000 4.304469 -0.848881 1.817083 -3.778620 7.145358 7.644171 -55.384488 -8.634028 -12.962986 176.153406 -85.610943 -150.362708 0.000000 0.000000 0.000000 -2.536273 0.864420 0.363846 16.998447 10.851887 9.900756 42.994890 8.957845 -18.310636 -145.222444 83.226415 -156.258909 0.000000 0.000000 0.000000 
-11.983623 34.293358 10.777374 179.368281 11.861313 179.564376 9.600247 -9.899055 -13.561091 -20.292267 14.906307 -95.643829 12.881867 -3.209591 117.730878 -16.905895 -30.136765 -14.485559 0.000000 0.000000 0.000000 5.513137 -2.410440 -9.567893 25.398260 -12.117738 -99.568435 -6.801321 -5.623892 107.034692 -4.993483 25.536457 12.362072 0.000000 0.000000 0.000000 -0.710403 -0.972429 4.220319 0.800048 1.985927 6.083921 0.121689 -1.623497 6.027796 0.050497 -0.192804 -0.046263 0.656871 -1.348948 7.995203 -2.201581 11.388807 15.194809 0.000000 0.000000 0.000000 4.297207 -0.834114 1.647815 -3.973501 7.185567 7.780323 -55.796133 -8.640829 -12.185707 172.537791 -85.527356 -146.733528 0.000000 0.000000 0.000000 -2.530012 0.987210 0.400490 17.213356 11.050955 10.111007 43.748881 9.247142 -17.478640 -145.275829 83.188337 -156.359723 0.000000 0.000000 0.000000 
-12.009389 34.274197 10.727014 179.377310 11.903784 179.549240 9.775716 -9.925339 -13.382005 -20.421878 14.869814 -95.850428 12.998805 -3.127121 117.771108 -17.013856 -29.951459 -14.261651 0.000000 0.000000 0.000000 5.767324 -2.389309 -9.442751 25.339952 -12.203768 -99.763560 -6.768800 -5.603548 107.176842 -4.889233 25.336283 12.373327 0.000000 0.000000 0.000000 -0.480318 -0.991754 4.472980 0.927212 2.075569 6.076057 0.096339 -1.567209 5.973457 0.042184 -0.139809 -0.051014 0.608954 -1.504746 7.863502 -2.306407 11.405287 15.128954 0.000000 0.000000 0.000000 4.251396 -0.936256 1.603818 -4.066929 7.136943 7.783825 -56.212180 -8.765462 -11.814147 174.335319 -85.627937 -148.514404 0.000000 0.000000 0.000000 -2.635518 0.931145 0.224746 17.502751 11.010786 10.374554 44.461072 9.358220 -16.802815 -144.759917 83.105364 -155.891841 0.000000 0.000000 0.000000 
-12.030553 34.255745 10.678473 179.302069 11.922200 179.529842 9.907428 -9.943874 -13.174298 -20.516804 14.868629 -96.070326 13.066529 -2.896694 117.811433 -16.969089 -29.747175 -14.027272 0.000000 0.000000 0.000000 6.001119 -2.327643 -9.154543 25.250916 -12.290861 -100.115772 -6.740505 -5.574750 107.267732 -4.822787 25.192618 12.250510 0.000000 0.000000 0.000000 -0.353123 -0.905472 4.768404 0.983524 1.927993 6.026533 0.097436 -1.641735 5.891142 0.053631 -0.169140 -0.084519 0.536190 -1.426733 7.793600 -2.441976 11.441999 15.066561 0.000000 0.000000 0.000000 4.172001 -0.818054 1.584113 -4.222372 7.142606 7.832753 -56.580864 -8.826723 -11.257578 172.558746 -85.598868 -146.743240 0.000000 0.000000 0.000000 -2.702045 0.990467 0.158771 17.648804 11.221442 10.604232 45.180434 9.412819 -16.236227 -144.442054 83.124195 -155.594373 0.000000 0.000000 0.000000 
